
<svg xmlns="http://www.w3.org/2000/svg" viewBox="0 0 100 100" preserveAspectRatio="xMidYMid slice">

  <circle cx="5" cy="8" r="0.4" fill="white" />
  <circle cx="15" cy="22" r="0.5" fill="white" />
  <circle cx="25" cy="35" r="0.6" fill="white" />
  <circle cx="35" cy="48" r="0.4" fill="white" />
   <polygon
    points="3.125,.3125 1.25,6.1875 5.75,2.4375 .3125,2.7345 5,6.1875"
    fill="white"
    opacity="0.6"
    transform="translate(37.5,18.5) scale(.5)"
  />
  <circle cx="45" cy="60" r="0.5" fill="white" />
  <circle cx="55" cy="73" r="0.6" fill="white" />
  <circle cx="65" cy="85" r="0.4" fill="white" />
  <circle cx="75" cy="20" r="0.5" fill="white" />
  <circle cx="85" cy="40" r="0.6" fill="white" />
  <polygon
    points="3.125,.3125 1.25,6.1875 5.75,2.4375 .3125,2.7345 5,6.1875"
    fill="white"
    opacity="0.6"
    transform="translate(27.5,68.5) scale(.5)"
  />
  <polygon
    points="3.125,.3125 1.25,6.1875 5.75,2.4375 .3125,2.7345 5,6.1875"
    fill="white"
    opacity="0.6"
    transform="translate(87.5,8.5) scale(.5)"
  />
  <polygon
    points="3.125,.3125 1.25,6.1875 5.75,2.4375 .3125,2.7345 5,6.1875"
    fill="white"
    opacity="0.6"
    transform="translate(7.5,28.5) scale(.5)"
  />
  <circle cx="95" cy="65" r="0.5" fill="white" />
  <circle cx="20" cy="80" r="0.4" fill="white" />
  <circle cx="40" cy="90" r="0.4" fill="white" />
  <circle cx="70" cy="10" r="0.4" fill="white" />
  <polygon
    points="100,10 40,198 190,78 10,78 160,198"
    fill="white"
    opacity="0.6"
    transform="translate(37.5,17.5) scale(.2)"
  />
</svg>

